<svg xmlns="http://www.w3.org/2000/svg" width="30" height="31" viewBox="0 0 30 31">
    <path fill="#FFF" fill-rule="nonzero" d="M14.326 14.82c.195 0 .371-.029.528-.088a1.139 1.139 0 0 0 .673-.673c.059-.157.088-.332.088-.528 0-.195-.03-.37-.088-.527a1.139 1.139 0 0 0-.673-.674 1.407 1.407 0 0 0-.499-.088c-.214 0-.4.03-.556.088a1.139 1.139 0 0 0-.674.674 1.493 1.493 0 0 0-.088.527c0 .196.03.376.088.542.059.166.146.308.264.425a.99.99 0 0 0 .41.25c.156.048.332.072.527.072zm.03 1.67c-.254 0-.474.04-.66.117a1.2 1.2 0 0 0-.483.381 1.984 1.984 0 0 0-.352 1.143c0 .273.035.522.103.747.068.225.18.415.337.571.136.156.298.274.483.352.186.078.386.117.6.117.216 0 .41-.034.587-.103.175-.068.332-.18.468-.336.137-.157.24-.347.308-.572.068-.224.103-.473.103-.747a2.17 2.17 0 0 0-.103-.688 1.565 1.565 0 0 0-.308-.542 1.972 1.972 0 0 0-.498-.323 1.427 1.427 0 0 0-.586-.117zM15 .875c-2.07 0-4.014.39-5.83 1.172-1.836.781-3.433 1.85-4.79 3.208-1.358 1.357-2.427 2.954-3.208 4.79C.39 11.86 0 13.805 0 15.875c0 2.07.39 4.014 1.172 5.83.781 1.836 1.85 3.433 3.208 4.79 1.357 1.358 2.954 2.427 4.79 3.208 1.816.781 3.76 1.172 5.83 1.172 2.07 0 4.014-.39 5.83-1.172 1.836-.781 3.433-1.85 4.79-3.208 1.358-1.357 2.427-2.954 3.208-4.79.781-1.816 1.172-3.76 1.172-5.83 0-2.07-.39-4.014-1.172-5.83-.781-1.836-1.85-3.433-3.208-4.79-1.357-1.358-2.954-2.427-4.79-3.208C19.014 1.266 17.07.875 15 .875zM5.713 21.383v-7.735a6.466 6.466 0 0 1-1.216.909c-.44.254-.913.468-1.42.644v-1.875c.253-.078.527-.2.82-.366.292-.166.595-.376.908-.63.312-.254.576-.522.79-.806.216-.283.382-.59.499-.922h1.67v10.78H5.713zm11.22-.733a3.028 3.028 0 0 1-1.098.704c-.42.156-.894.234-1.42.234a4.54 4.54 0 0 1-1.349-.19 3.2 3.2 0 0 1-1.084-.572 2.935 2.935 0 0 1-.864-1.084c-.185-.41-.278-.879-.278-1.406 0-.293.034-.576.102-.85.069-.273.171-.527.308-.761.156-.235.347-.45.571-.645a2.61 2.61 0 0 1 .806-.469 3.03 3.03 0 0 1-.703-.41 1.982 1.982 0 0 1-.469-.527 2.438 2.438 0 0 1-.351-1.29c0-.41.068-.78.205-1.113.136-.332.341-.625.615-.878.293-.254.635-.45 1.025-.586.39-.137.85-.205 1.377-.205.508 0 .957.068 1.348.205.39.136.732.332 1.025.586.274.253.484.546.63.878.147.333.22.704.22 1.114 0 .254-.034.488-.103.703a2.27 2.27 0 0 1-.307.615 1.887 1.887 0 0 1-.454.513 3.639 3.639 0 0 1-.63.395c.312.118.58.264.805.44.225.176.415.37.572.586.156.234.268.483.337.747.068.263.102.552.102.864 0 .488-.078.933-.234 1.333-.157.4-.39.757-.703 1.07zm6.944-3.603v2.812h-1.875v-2.812h-2.813v-1.904h2.813V12.33h1.875v2.813h2.812v1.904h-2.812z"/>
</svg>
