<svg xmlns="http://www.w3.org/2000/svg" width="200" height="30" viewBox="0 0 200 30">
    <path fill="#FFF" fill-rule="nonzero" d="M9.58 6.621C8.818 5.977 8.145 5.522 7.56 5.26a4.448 4.448 0 0 0-1.846-.396c-.86 0-1.631.166-2.315.498A5.138 5.138 0 0 0 1.582 6.71C1.074 7.295.684 7.998.41 8.819c-.273.8-.41 1.699-.41 2.695 0 .957.137 1.836.41 2.636.274.82.65 1.524 1.128 2.11a5.101 5.101 0 0 0 1.743 1.377 4.844 4.844 0 0 0 2.198.498c1.21 0 2.128-.259 2.753-.777.625-.517 1.075-.932 1.348-1.245v2.168c0 .762-.293 1.372-.879 1.831-.586.46-1.367.689-2.344.689-.8 0-1.435-.142-1.904-.425-.469-.283-.81-.728-1.025-1.333H.146c.215.8.435 1.406.66 1.816.224.41.551.791.981 1.143.547.469 1.206.815 1.978 1.04.771.225 1.655.337 2.651.337 2.031 0 3.623-.454 4.775-1.362 1.153-.909 1.729-2.173 1.729-3.794V7.763h1.26V5.157h-4.6v1.465zm-3.105 8.73c-.977 0-1.72-.327-2.227-.98-.508-.655-.762-1.598-.762-2.828 0-1.172.288-2.11.865-2.813.576-.703 1.352-1.054 2.329-1.054.84 0 1.538.356 2.094 1.07.557.712.835 1.615.835 2.71 0 1.132-.297 2.065-.893 2.797-.596.732-1.343 1.099-2.241 1.099zM26.748 9.61c0-1.543-.493-2.73-1.48-3.56-.986-.83-2.416-1.244-4.291-1.244-1.602 0-2.91.405-3.926 1.216-1.016.81-1.563 1.899-1.64 3.266l3.28.088c.04-.625.279-1.123.718-1.494.44-.371 1.01-.557 1.714-.557.996 0 1.66.176 1.992.528.332.351.508 1.044.528 2.08a81.339 81.339 0 0 0-3.223.351c-1.055.156-1.997.396-2.827.718-.83.322-1.5.776-2.007 1.362-.508.586-.762 1.377-.762 2.373 0 1.211.46 2.222 1.377 3.033.918.81 2.051 1.215 3.399 1.215.84 0 1.562-.136 2.168-.41.605-.273 1.25-.762 1.933-1.465v1.582h4.219v-2.636h-1.172V9.609zm-3.164 4.014c0 .84-.293 1.548-.879 2.124-.586.576-1.309.864-2.168.864-.664 0-1.201-.17-1.611-.512-.41-.342-.615-.796-.615-1.363 0-.937.478-1.543 1.435-1.816.957-.274 2.236-.488 3.838-.645v1.348zm24.61-4.98c0-1.153-.338-2.085-1.011-2.798-.674-.713-1.558-1.07-2.652-1.07-1.093 0-1.968.264-2.622.791-.654.528-1.147.967-1.48 1.319-.429-.762-.888-1.304-1.376-1.626-.489-.322-1.114-.484-1.875-.484-.762 0-1.416.137-1.963.41-.547.274-1.182.792-1.904 1.553V5.156h-4.512v2.608h1.172v8.29h-1.143v2.667h5.8v-2.666h-1.317V11.66c-.04-1.074.214-2.007.761-2.798.547-.79 1.192-1.186 1.934-1.186.488 0 .85.166 1.084.498.234.332.351.84.351 1.523v8.994h4.63v-2.636h-1.319v-4.688c0-.957.273-1.811.82-2.563.547-.752 1.172-1.128 1.875-1.128.43 0 .777.166 1.04.498.264.332.396.8.396 1.406v9.14h4.57v-2.665h-1.26V8.643zM58.77 4.746c-.743 0-1.407.142-1.993.425-.586.283-1.21.766-1.875 1.45V0h-4.629v2.637h1.319v13.418h-1.436v2.666h4.6v-1.494c.762.703 1.44 1.181 2.036 1.435.596.254 1.313.381 2.153.381.84 0 1.612-.176 2.315-.527a5.118 5.118 0 0 0 1.787-1.48c.488-.635.869-1.401 1.142-2.3.274-.898.41-1.894.41-2.988 0-1.016-.146-1.953-.439-2.812-.273-.86-.674-1.602-1.201-2.227a5.782 5.782 0 0 0-1.846-1.465 5.546 5.546 0 0 0-2.343-.498zm-.704 11.484c-1.054 0-1.86-.366-2.417-1.098-.556-.733-.835-1.792-.835-3.179 0-1.387.284-2.466.85-3.237.566-.772 1.367-1.157 2.402-1.157.957 0 1.71.385 2.256 1.157.547.771.82 1.83.82 3.179 0 1.308-.278 2.358-.834 3.149-.557.791-1.304 1.186-2.242 1.186zm13.184-.175h-1.29V0h-4.628v2.637h1.318v13.418h-1.318v2.636h5.918v-2.636zm7.12.205c-.313 0-.894-.176-1.744-.528-.85-.351-1.362-1.406-1.538-3.164h9.785c-.02-.683-.093-1.46-.22-2.329-.127-.869-.493-1.782-1.098-2.739a6.02 6.02 0 0 0-2.256-2.036 6.368 6.368 0 0 0-2.988-.718c-.938 0-1.817.176-2.637.527-.801.352-1.494.85-2.08 1.495a7.144 7.144 0 0 0-1.377 2.255c-.352.88-.528 1.836-.528 2.872 0 1.035.166 1.992.499 2.87.332.86.79 1.607 1.376 2.242a6.107 6.107 0 0 0 2.11 1.48c.8.35 1.67.527 2.607.527 1.66 0 3.062-.43 4.204-1.29 1.143-.859 1.87-2.02 2.183-3.486h-3.545c-.254.703-.61 1.216-1.07 1.538-.458.323-1.02.484-1.684.484zm-.06-8.701c.801 0 1.45.23 1.949.688.498.46.805 1.118.923 1.978h-5.889c.215-.82.59-1.47 1.128-1.949a2.75 2.75 0 0 1 1.89-.717zm19.044 1.728c0-1.406-.474-2.51-1.421-3.31-.948-.801-2.261-1.202-3.94-1.202-.958 0-1.812.122-2.564.367-.752.244-1.382.6-1.89 1.069-.39.371-.684.762-.879 1.172-.195.41-.342.976-.44 1.699h2.813c.156-.8.45-1.377.88-1.728.429-.352 1.064-.528 1.903-.528.918 0 1.626.21 2.124.63.498.42.748 1.03.748 1.831v.85l-1.788.205c-1.796.195-3.14.434-4.028.718-.889.283-1.597.688-2.124 1.215a4.098 4.098 0 0 0-.762 1.216 3.87 3.87 0 0 0-.263 1.45c0 1.172.415 2.144 1.245 2.915.83.772 1.89 1.158 3.178 1.158 1.094 0 1.978-.22 2.652-.66.674-.439 1.313-.932 1.919-1.479v1.846h4.248v-2.168h-1.611V9.287zm-2.666 4.336c0 .86-.372 1.636-1.114 2.33-.742.693-1.582 1.04-2.52 1.04a2.282 2.282 0 0 1-1.655-.675c-.459-.449-.688-.986-.688-1.611 0-.215.049-.44.146-.674a1.7 1.7 0 0 1 .44-.615c.332-.352.8-.63 1.406-.835.606-.205 1.533-.405 2.783-.6l1.201-.176v1.816zm18.486-6.387h1.494l-2.227 9.2-2.578-11.338h-2.578l-2.607 11.338-2.227-9.2h1.494V5.098H98.73v2.138h1.319l3.164 11.455h2.9l2.432-10.166 2.49 10.166h2.871l3.106-11.455h1.318V5.098h-5.156v2.138zm18.955 11.455v-2.138h-1.64V9.287c0-1.406-.47-2.51-1.407-3.31-.937-.801-2.256-1.202-3.955-1.202-.957 0-1.807.122-2.549.367-.742.244-1.377.6-1.904 1.069-.39.371-.684.762-.88 1.172-.194.41-.34.976-.439 1.699h2.813c.156-.8.45-1.377.879-1.728.43-.352 1.064-.528 1.904-.528.938 0 1.65.21 2.139.63.488.42.732 1.03.732 1.831v.85l-1.758.205c-1.816.195-3.168.434-4.057.718-.889.283-1.597.688-2.124 1.215a3.862 3.862 0 0 0-.747 1.216c-.166.44-.25.923-.25 1.45 0 1.172.416 2.144 1.246 2.915.83.772 1.88 1.158 3.15 1.158 1.093 0 1.977-.22 2.65-.66.674-.439 1.314-.932 1.92-1.479v1.846h4.277v-.03zm-4.307-5.068c0 .86-.37 1.636-1.113 2.33-.742.693-1.572 1.04-2.49 1.04-.664 0-1.226-.225-1.685-.675-.459-.449-.688-.986-.688-1.611 0-.215.053-.44.16-.674.108-.234.25-.44.426-.615.332-.352.805-.63 1.42-.835.616-.205 1.548-.405 2.798-.6l1.172-.176v1.816zm9.405-5.478V5.098h-4.19v2.138h1.524v9.317h-1.553v2.138h5.771v-2.138h-1.552v-5.186c0-.508.273-1.308.82-2.402.547-1.094 1.582-1.64 3.105-1.64.196 0 .381.014.557.043.176.03.43.083.762.161V4.951a15.522 15.522 0 0 0-.674-.132 3.786 3.786 0 0 0-.615-.044c-1.192 0-2.056.357-2.593 1.07a12.09 12.09 0 0 0-1.362 2.3zm17.841 6.386h-2.93c-.234.762-.576 1.319-1.025 1.67-.449.352-1.035.528-1.758.528-.898 0-1.748-.333-2.548-.997-.801-.664-1.23-1.757-1.29-3.28h9.786c0-1.602-.215-2.901-.645-3.897-.41-1.016-.923-1.797-1.538-2.344-.615-.547-1.265-.928-1.948-1.143-.703-.195-1.328-.293-1.875-.293-.957 0-1.826.176-2.608.528-.8.351-1.494.84-2.08 1.465a6.868 6.868 0 0 0-1.377 2.197 8.084 8.084 0 0 0-.468 2.783c0 1.094.156 2.08.468 2.959.313.898.752 1.665 1.319 2.3a5.952 5.952 0 0 0 2.021 1.48c.801.35 1.68.527 2.637.527 1.953 0 3.35-.576 4.19-1.729.84-1.152 1.396-2.07 1.67-2.754zm-5.83-7.47c.938 0 1.665.297 2.183.893.517.596.815 1.46.893 2.593h-6.709c0-.195.254-.825.762-1.89.508-1.064 1.465-1.596 2.871-1.596zm7.178 11.66h2.197v-2.198h-2.197v2.198zm9.727-2.989c-.157.489-.386.855-.689 1.1-.303.243-.679.365-1.128.365a1.714 1.714 0 0 1-1.45-.732c-.361-.488-.542-1.143-.542-1.963 0-.723.18-1.314.542-1.773a1.722 1.722 0 0 1 1.42-.688c.216 0 .42.03.616.088.195.059.371.156.527.293.157.117.303.273.44.469.137.195.254.43.351.703h1.788v-2.989h-1.7v.82c-.39-.39-.756-.668-1.098-.834-.342-.166-.747-.25-1.216-.25-1.094 0-1.987.401-2.68 1.202-.694.8-1.04 1.826-1.04 3.076s.37 2.276 1.112 3.076c.743.801 1.7 1.201 2.872 1.201.976 0 1.811-.278 2.504-.834.694-.557 1.158-1.333 1.392-2.33h-2.021zm11.074-1.084c0-1.191-.386-2.207-1.157-3.046-.772-.84-1.714-1.26-2.828-1.26-1.171 0-2.143.41-2.915 1.23-.771.82-1.157 1.846-1.157 3.076s.386 2.251 1.157 3.062c.772.81 1.744 1.216 2.915 1.216 1.133 0 2.08-.41 2.842-1.23.762-.821 1.143-1.837 1.143-3.048zm-4.072 2.52c-.567 0-1.026-.234-1.377-.703-.352-.469-.528-1.084-.528-1.846s.176-1.372.528-1.83c.351-.46.81-.69 1.377-.69.585 0 1.06.235 1.42.704.362.468.542 1.074.542 1.816 0 .781-.175 1.402-.527 1.86-.351.46-.83.689-1.435.689zm5.302 1.553h2.198v-2.198h-2.198v2.198zm12.246 0v-1.582h-.732v-6.534h-2.783v1.582h.79v2.96c0 .546-.19 1.035-.57 1.464-.381.43-.816.645-1.304.645-.39 0-.679-.117-.865-.352-.185-.234-.278-.586-.278-1.054v-5.245h-2.783v1.582h.791v4.102c0 .84.21 1.49.63 1.948.42.46 1.02.689 1.802.689.586 0 1.079-.122 1.48-.366.4-.245.775-.523 1.127-.835v.996h2.695zm1.612-1.582h-.645v1.582h3.486v-1.582h-.85v-1.465l1.143-.967 2.374 4.014h1.904v-1.582h-.674l-2.256-3.721 1.406-1.23h.82v-1.583h-1.757l-2.96 2.813V7.5h-2.724v1.582h.733v8.057zM71.602 27.773h1.23c-.039.391-.17.689-.395.894-.225.205-.533.308-.923.308-.547 0-.938-.19-1.172-.572a2.383 2.383 0 0 1-.352-1.274c0-.488.117-.928.352-1.318.234-.391.625-.586 1.172-.586.273 0 .517.078.732.234.215.156.352.39.41.703h1.172c-.058-.625-.322-1.108-.79-1.45a2.533 2.533 0 0 0-1.524-.513c-.86 0-1.529.283-2.007.85-.479.566-.718 1.26-.718 2.08 0 .8.24 1.48.718 2.036.478.557 1.147.835 2.007.835.254 0 .512-.059.776-.176.264-.117.503-.312.718-.586l.146.645h.762v-2.988h-2.314v.878zm7.119-3.427l-2.11 5.537h1.23l.44-1.23h2.08l.41 1.23h1.26l-2.08-5.537h-1.23zm-.117 3.398l.703-2.05h.029l.703 2.05h-1.435zm9.228.41l-1.318-3.808h-1.7v5.537h1.143v-3.897l1.377 3.897h.937l1.348-3.926v3.926h1.143v-5.537h-1.7l-1.23 3.808zm9.932-1.289c.234-.117.415-.268.542-.454a1.19 1.19 0 0 0 .19-.688c0-.528-.161-.889-.483-1.084-.323-.196-.747-.293-1.275-.293h-2.607v5.537h2.695c.488 0 .933-.127 1.333-.381.4-.254.6-.664.6-1.23 0-.352-.082-.65-.248-.894-.166-.244-.415-.415-.747-.513zm-2.403-1.582h1.143c.215 0 .405.04.571.117.166.079.25.254.25.528 0 .234-.07.4-.206.498a.886.886 0 0 1-.527.146h-1.23v-1.289zm1.29 3.633h-1.29v-1.494h1.319c.254 0 .464.058.63.176.166.117.249.322.249.615 0 .273-.093.459-.279.557a1.332 1.332 0 0 1-.63.146zm6.474-4.57h-1.23v5.537h3.896v-1.026h-2.666v-4.511zm6.885 3.164h2.666v-.967h-2.666v-1.172h2.93v-1.025h-4.131v5.537h4.189v-1.026h-2.988V27.51zm14.795-.205c.293-.098.503-.279.63-.542a1.9 1.9 0 0 0 .19-.835c0-.528-.176-.923-.527-1.187-.352-.263-.772-.395-1.26-.395h-3.252v5.537h1.7v-1.934h.907c.352 0 .562.113.63.337.069.225.113.474.132.747l.059.41c.02.137.049.284.088.44h1.699c-.078-.137-.122-.337-.132-.6a6.208 6.208 0 0 0-.044-.601 2.304 2.304 0 0 0-.264-.865 1.13 1.13 0 0 0-.556-.512zm-1.612-.557h-.908v-1.084h.82c.313 0 .528.049.645.147a.504.504 0 0 1 .176.41c0 .234-.083.38-.25.44a1.449 1.449 0 0 1-.483.087zm7.149 1.025h2.607v-1.318h-2.607v-.703h2.87v-1.406h-4.57v5.537h4.659v-1.436h-2.96v-.674zm9.14-1.26c-.39-.117-.752-.214-1.084-.292-.332-.078-.507-.215-.527-.41 0-.157.073-.26.22-.308.146-.049.278-.073.395-.073.078 0 .166.01.264.029.098.02.176.059.234.117.078.04.137.098.176.176a.4.4 0 0 1 .03.264h1.61c-.019-.664-.258-1.133-.717-1.407-.459-.273-.991-.41-1.597-.41-.566 0-1.079.147-1.538.44-.459.293-.688.761-.688 1.406 0 .547.205.918.615 1.113.41.196.83.362 1.26.498.469.117.786.215.952.293.166.078.249.186.249.322 0 .215-.083.352-.25.41a1.377 1.377 0 0 1-.453.089 1.71 1.71 0 0 1-.484-.074.486.486 0 0 1-.337-.307 1.157 1.157 0 0 1-.058-.381h-1.7c0 .879.328 1.43.982 1.655.654.225 1.138.337 1.45.337.606 0 1.182-.137 1.729-.41.547-.274.82-.772.82-1.494 0-.508-.161-.874-.483-1.099a3.218 3.218 0 0 0-1.07-.483zm7.237-2.167h-2.842v5.537h1.7v-1.67h.995c.625 0 1.143-.161 1.553-.484.41-.322.615-.825.615-1.508 0-.39-.151-.801-.454-1.23-.303-.43-.825-.645-1.567-.645zm-.498 2.549h-.645v-1.143h.733c.214 0 .405.03.57.088.167.058.25.215.25.469 0 .273-.098.439-.293.498a2.13 2.13 0 0 1-.615.088zm8.027-2.696c-.84 0-1.514.274-2.021.82-.508.547-.762 1.24-.762 2.08 0 .86.254 1.558.762 2.095.507.537 1.181.806 2.021.806.84 0 1.519-.269 2.036-.806.518-.537.777-1.235.777-2.094 0-.84-.26-1.534-.777-2.08-.517-.547-1.196-.82-2.036-.82zm0 4.424c-.215 0-.45-.098-.703-.293-.254-.195-.38-.605-.38-1.23 0-.606.126-1.006.38-1.202.254-.195.488-.293.703-.293.215 0 .454.098.718.293.263.196.395.596.395 1.202 0 .625-.132 1.035-.395 1.23-.264.195-.503.293-.718.293zm9.2-1.318l-1.612-2.96h-1.729v5.538h1.582v-3.018h.03l1.699 3.018h1.64v-5.537h-1.61v2.959zm7.91-.791c-.391-.118-.753-.215-1.085-.293-.332-.078-.507-.215-.527-.41 0-.157.073-.26.22-.308.146-.049.278-.073.395-.073.078 0 .166.01.264.029.098.02.176.059.234.117.078.04.137.098.176.176a.4.4 0 0 1 .03.264h1.61c-.019-.664-.258-1.133-.717-1.407-.459-.273-.991-.41-1.597-.41-.566 0-1.079.147-1.538.44-.459.293-.688.761-.688 1.406 0 .547.205.918.615 1.113.41.196.83.362 1.26.498.469.117.786.215.952.293.166.078.249.186.249.322 0 .215-.083.352-.25.41a1.377 1.377 0 0 1-.453.089 1.71 1.71 0 0 1-.484-.074.486.486 0 0 1-.337-.307 1.157 1.157 0 0 1-.058-.381h-1.7c0 .879.328 1.43.982 1.655.654.225 1.138.337 1.45.337.606 0 1.182-.137 1.729-.41.547-.274.82-.772.82-1.494 0-.508-.161-.874-.483-1.099a3.218 3.218 0 0 0-1.07-.483zm4.394 3.369h1.7v-5.537h-1.7v5.537zm8.994-3.076a1.37 1.37 0 0 0 .483-.396c.127-.166.19-.395.19-.688 0-.274-.111-.572-.336-.894-.225-.322-.698-.483-1.42-.483h-3.018v5.537h3.105c.488 0 .933-.142 1.333-.425.4-.283.6-.708.6-1.274 0-.41-.097-.718-.292-.923a1.898 1.898 0 0 0-.645-.454zm-2.432-1.143h.909c.175 0 .317.03.424.088.108.059.162.156.162.293 0 .176-.054.293-.162.351a.886.886 0 0 1-.424.088h-.909v-.82zm1.026 2.9h-1.026V27.54h1.084c.196 0 .342.04.44.117.098.078.146.205.146.381 0 .215-.063.357-.19.425a.945.945 0 0 1-.454.102zm7.031-4.218h-1.7v5.537h4.132v-1.436h-2.432v-4.101zm7.705 0l-.967 2.021-.908-2.021h-1.875l1.934 3.486v2.05h1.699v-2.05l1.992-3.486h-1.875z"/>
</svg>
