<svg xmlns="http://www.w3.org/2000/svg" width="80" height="30" viewBox="0 0 80 30">
    <path fill="#FFF" fill-rule="nonzero" d="M66.064 0l-7.001 15.03h-9.229v3.925h6.914a7.093 7.093 0 0 1-.835 2.725c-.459.84-1.099 1.611-1.919 2.314a9.153 9.153 0 0 1-2.622 1.553c-.928.351-1.9.527-2.915.527a9.002 9.002 0 0 1-3.5-.703c-1.124-.469-2.203-1.162-3.238-2.08-1.114-1.016-1.948-2.158-2.505-3.428-.557-1.27-.835-2.675-.835-4.218 0-1.504.249-2.876.747-4.117.498-1.24 1.245-2.358 2.241-3.354.996-1.016 2.11-1.778 3.34-2.285 1.23-.508 2.578-.762 4.043-.762a9.33 9.33 0 0 1 4.526 1.157c.694.381 1.353.855 1.978 1.421.644.566 1.25 1.22 1.816 1.963l2.989-2.842a22.203 22.203 0 0 0-2.637-2.563 14.648 14.648 0 0 0-2.666-1.743 14.474 14.474 0 0 0-6.064-1.318 15.87 15.87 0 0 0-2.93.263 13.494 13.494 0 0 0-5.127 2.11 15.087 15.087 0 0 0-2.227 1.845c-.37.371-.718.752-1.04 1.143-.322.39-.62.79-.893 1.2a6.555 6.555 0 0 0-.22-.746c-.088-.245-.18-.494-.278-.747a8.971 8.971 0 0 0-.806-1.45 6.714 6.714 0 0 0-1.04-1.187 5.788 5.788 0 0 0-1.29-.88 8.548 8.548 0 0 0-1.552-.585 12.958 12.958 0 0 0-1.919-.308 27.232 27.232 0 0 0-2.505-.102h-4.16v2.08a18.579 18.579 0 0 0-1.07-.718 13.27 13.27 0 0 0-1.069-.6 14.474 14.474 0 0 0-6.064-1.318c-1.016 0-1.982.087-2.9.263a13.579 13.579 0 0 0-5.156 2.11A15.087 15.087 0 0 0 4.218 5.42a15.087 15.087 0 0 0-1.846 2.226 13.494 13.494 0 0 0-2.11 5.127 15.402 15.402 0 0 0-.263 2.9c0 .977.088 1.925.264 2.843.175.918.434 1.797.776 2.636.342.84.776 1.65 1.304 2.432a15.659 15.659 0 0 0 1.816 2.227 15.72 15.72 0 0 0 2.168 1.816 13.058 13.058 0 0 0 4.98 2.11 14.62 14.62 0 0 0 2.813.263c1.68 0 3.233-.259 4.658-.776a12.404 12.404 0 0 0 3.926-2.33v2.579h6.328c.938 0 1.802-.044 2.593-.132a13.31 13.31 0 0 0 2.124-.396 6.832 6.832 0 0 0 1.655-.747 8.114 8.114 0 0 0 1.45-1.157c.254-.234.479-.479.674-.732.196-.254.381-.508.557-.762l.117.117a.96.96 0 0 1 .117.147c.703.683 1.436 1.289 2.198 1.816a13.058 13.058 0 0 0 4.98 2.11 14.62 14.62 0 0 0 2.813.263c.722 0 1.42-.049 2.094-.146a13.471 13.471 0 0 0 1.978-.44l-.03.059h4.512l2.52-5.537c.136-.196.259-.391.366-.586.107-.196.21-.4.308-.616h11.777l2.9 6.739h4.57L66.065 0zM26.865 5.596h1.494c.703 0 1.324.083 1.86.249.538.166.992.415 1.363.747.371.351.65.771.835 1.26.186.488.278 1.064.278 1.728 0 .664-.088 1.25-.263 1.758-.176.508-.45.937-.82 1.289-.352.332-.816.586-1.392.762-.576.175-1.255.263-2.036.263h-1.29V5.596h-.029zm-4.306 13.36a7.093 7.093 0 0 1-.835 2.724c-.46.84-1.099 1.611-1.92 2.314a9.216 9.216 0 0 1-2.607 1.553 8.12 8.12 0 0 1-2.93.527 9.002 9.002 0 0 1-3.5-.703c-1.123-.469-2.203-1.162-3.238-2.08-1.113-1.016-1.948-2.158-2.505-3.428-.556-1.27-.835-2.675-.835-4.218 0-1.504.25-2.876.748-4.117.498-1.24 1.245-2.358 2.24-3.354.997-1.016 2.11-1.778 3.34-2.285 1.231-.508 2.579-.762 4.044-.762 1.601 0 3.076.361 4.423 1.084 1.348.723 2.588 1.797 3.721 3.223v5.595h-7.06v3.926h6.914zm12.48 2.43c0 .606-.117 1.163-.352 1.67a4.128 4.128 0 0 1-1.054 1.378c-.45.37-1.02.649-1.714.835-.693.185-1.509.278-2.446.278h-2.608v-6.328c.059-.332.103-.67.132-1.011.03-.342.054-.688.073-1.04h1.934c1.113 0 2.06.098 2.842.293.781.195 1.396.498 1.845.908.254.215.474.454.66.718.185.264.327.542.424.835.02.078.04.146.059.205l.059.176c.058.176.097.351.117.527.02.176.03.361.03.557zM61.7 18.81l4.307-9.434 4.101 9.434H61.7z"/>
</svg>
