<svg xmlns="http://www.w3.org/2000/svg" width="36" height="30" viewBox="0 0 36 30">
    <path fill="#FFF" fill-rule="nonzero" d="M35.338 11.22V6.856h-3.809V0h-8.29v6.855h-10.87v2.461L10.934 7.94c-.957-.918-2.149-1.377-3.575-1.377-.156 0-.361-.004-.615-.014a3.482 3.482 0 0 0-.586.014c-1.601.215-2.973.83-4.116 1.846C.899 9.424.25 10.986.094 13.096c-.04.41-.069.957-.088 1.64-.02.684.01 1.23.088 1.641.176 1.055.469 1.973.879 2.754.39.781.864 1.435 1.42 1.963a5.845 5.845 0 0 0 1.86 1.2 5.901 5.901 0 0 0 2.081.499c.117.02.273.03.469.03.195 0 .351-.01.468-.03 1.368-.098 2.442-.474 3.223-1.128l1.172-.981v3.808c0 .293-.156.63-.469 1.01-.312.382-.85.572-1.611.572H8.56c-.704 0-1.226-.273-1.568-.82l-.513-.82-6.21-.616v.85c0 .566.136 1.172.41 1.816a5.069 5.069 0 0 0 1.172 1.714c.527.518 1.171.952 1.933 1.304.781.332 1.68.498 2.695.498h4.688c1.094 0 2.07-.166 2.93-.498.879-.332 1.62-.786 2.226-1.362a6.211 6.211 0 0 0 1.406-1.978 5.676 5.676 0 0 0 .499-2.344v-2.021-4.307-4.306-1.934h5.01v12.041c0 1.016.41 1.992 1.23 2.93.82.937 2.031 1.406 3.633 1.406H35.338v-5.713H32.643c-.215 0-.45-.098-.704-.293-.253-.195-.38-.488-.38-.879v-2.52-3.163-2.696-1.142h3.779zM9 18.546c-.781 0-1.45-.357-2.007-1.07-.556-.712-.835-1.567-.835-2.563 0-1.016.279-1.875.835-2.578.557-.703 1.226-1.055 2.007-1.055.8 0 1.48.352 2.036 1.055.557.703.835 1.562.835 2.578 0 .996-.278 1.85-.835 2.564-.557.712-1.235 1.069-2.036 1.069z"/>
</svg>
