<svg xmlns="http://www.w3.org/2000/svg" width="128" height="30" viewBox="0 0 128 30">
    <path fill="#FFF" fill-rule="nonzero" d="M6.445 5.186a2.45 2.45 0 0 0-.703.307 3.815 3.815 0 0 0-.674.542 3.34 3.34 0 0 0-.6.733 6.562 6.562 0 0 0-.454.908V5.127H0V7.09h2.256v7.324H0v1.963h6.914v-1.963h-2.46v-2.49c0-.762.033-1.406.102-1.934.068-.527.17-.937.307-1.23.137-.293.308-.542.513-.747.205-.205.444-.367.718-.484a4.12 4.12 0 0 1 1.04-.263c.42-.059.913-.088 1.48-.088h.439V4.95h-.586c-.43 0-.81.02-1.143.059-.332.039-.625.097-.879.176zm12.569 1.26a6.23 6.23 0 0 0-1.934-1.217 5.972 5.972 0 0 0-2.168-.395c-.762 0-1.484.137-2.168.41a5.88 5.88 0 0 0-1.904 1.26 5.183 5.183 0 0 0-1.348 1.89c-.293.712-.44 1.499-.44 2.358 0 .898.152 1.709.455 2.432a5.309 5.309 0 0 0 1.362 1.904 6.867 6.867 0 0 0 2.036 1.201c.733.273 1.529.41 2.388.41a6.86 6.86 0 0 0 1.611-.19 8.379 8.379 0 0 0 1.553-.542 5.655 5.655 0 0 0 1.377-.894c.41-.361.771-.786 1.084-1.274l-1.934-.88c-.449.626-.981 1.095-1.596 1.407-.616.313-1.304.469-2.066.469-.527 0-1.01-.083-1.45-.25a3.447 3.447 0 0 1-1.157-.717 4.177 4.177 0 0 1-.806-1.128 4.823 4.823 0 0 1-.425-1.391h9.434c-.02-1.075-.186-2.017-.498-2.828a5.091 5.091 0 0 0-1.406-2.036zm-7.442 3.251c.078-.449.21-.86.396-1.23.185-.371.434-.703.747-.996.312-.293.659-.508 1.04-.645.38-.137.786-.205 1.216-.205.488 0 .937.078 1.347.234.41.157.782.391 1.114.704.332.332.6.673.805 1.025.205.352.347.723.425 1.113h-7.09zm18.487.44a12.656 12.656 0 0 0-2.461-.586 15.42 15.42 0 0 1-1.407-.25 5.036 5.036 0 0 1-.82-.248.764.764 0 0 1-.38-.337 1.14 1.14 0 0 1-.118-.542c0-.215.044-.405.132-.571.088-.166.23-.308.425-.425.175-.137.385-.235.63-.293.244-.059.512-.088.805-.088.567 0 1.065.112 1.494.337.43.224.791.571 1.084 1.04v.674h1.963V5.127h-1.963v.498a4.881 4.881 0 0 0-1.245-.498 5.965 5.965 0 0 0-1.48-.176c-.585 0-1.117.083-1.596.25a3.652 3.652 0 0 0-1.245.717c-.352.312-.62.664-.806 1.055-.185.39-.278.82-.278 1.289 0 .468.083.888.249 1.26.166.37.415.703.747.996.332.293.772.546 1.318.761.547.215 1.211.39 1.993.528.527.078.962.16 1.303.249.342.088.6.19.777.307a.992.992 0 0 1 .395.381c.088.156.132.342.132.557 0 .215-.049.405-.146.571a1.396 1.396 0 0 1-.47.454 3.05 3.05 0 0 1-.746.278c-.283.069-.61.103-.982.103-.332 0-.644-.044-.937-.132a2.894 2.894 0 0 1-.82-.395 2.087 2.087 0 0 1-.586-.586 1.807 1.807 0 0 1-.264-.703v-.381h-1.963v3.867h1.963v-.645c.371.274.8.479 1.289.616a6.083 6.083 0 0 0 1.64.205c.645 0 1.226-.078 1.744-.235a4.01 4.01 0 0 0 1.362-.703c.41-.293.713-.65.908-1.07a3.33 3.33 0 0 0 .293-1.42 3.286 3.286 0 0 0-.527-1.846 4.628 4.628 0 0 0-.63-.674 2.7 2.7 0 0 0-.776-.468zm10.986 6.562c.723 0 1.401-.132 2.036-.395a6.06 6.06 0 0 0 1.802-1.187 5.214 5.214 0 0 0 1.245-1.875c.283-.722.425-1.533.425-2.431 0-.86-.127-1.641-.381-2.344A5.238 5.238 0 0 0 45 6.592a4.986 4.986 0 0 0-1.743-1.23 5.53 5.53 0 0 0-2.153-.41 4.9 4.9 0 0 0-2.168.483c-.665.322-1.27.815-1.817 1.48V5.126h-4.101V7.09h1.875v12.334h-2.051v1.963h6.445v-1.963H37.12V14.97a6.143 6.143 0 0 0 1.831 1.289c.654.293 1.353.44 2.095.44zm-3.984-5.8c0-.586.092-1.124.278-1.612.185-.488.464-.918.835-1.289a4.12 4.12 0 0 1 1.201-.806c.43-.185.889-.278 1.377-.278.45 0 .879.083 1.289.25.41.165.791.414 1.143.746.351.352.62.757.805 1.216.186.459.279.991.279 1.597 0 .625-.088 1.176-.264 1.655-.176.478-.43.893-.762 1.245a3.552 3.552 0 0 1-1.172.791c-.43.176-.908.264-1.435.264a3.72 3.72 0 0 1-1.055-.147 3.013 3.013 0 0 1-.908-.44 3.17 3.17 0 0 1-.718-.63 3.956 3.956 0 0 1-.513-.775 4.965 4.965 0 0 1-.278-.865 4.177 4.177 0 0 1-.102-.923zm17.285 5.8c.8 0 1.548-.137 2.24-.41a5.834 5.834 0 0 0 1.92-1.26 5.179 5.179 0 0 0 1.304-1.89c.283-.712.424-1.508.424-2.387s-.141-1.675-.424-2.388a5.179 5.179 0 0 0-1.304-1.89 6.063 6.063 0 0 0-1.92-1.23 6.054 6.054 0 0 0-2.24-.41 6.25 6.25 0 0 0-2.285.41 5.493 5.493 0 0 0-1.905 1.26 5.52 5.52 0 0 0-1.289 1.89c-.293.712-.44 1.499-.44 2.358 0 .86.142 1.645.426 2.358a5.64 5.64 0 0 0 1.274 1.92 5.894 5.894 0 0 0 1.904 1.244 6.14 6.14 0 0 0 2.315.425zm-2.578-8.642c.351-.371.737-.65 1.157-.835a3.48 3.48 0 0 1 1.42-.279c.489 0 .943.093 1.363.279.42.185.806.454 1.157.805.352.352.615.757.791 1.216.176.46.264.962.264 1.509 0 .547-.088 1.045-.264 1.494-.176.45-.43.85-.761 1.201a3.407 3.407 0 0 1-1.158.82 3.57 3.57 0 0 1-1.391.264 3.57 3.57 0 0 1-1.392-.263 3.598 3.598 0 0 1-1.157-.791 3.657 3.657 0 0 1-.762-1.216 4.185 4.185 0 0 1-.264-1.509c0-.547.083-1.045.25-1.494a3.5 3.5 0 0 1 .747-1.201zm16.113 6.357h-1.934V8.408c.625-.488 1.211-.85 1.758-1.084.547-.234 1.065-.351 1.553-.351.195 0 .37.029.527.088a.997.997 0 0 1 .41.293c.137.136.235.341.293.615.059.273.088.625.088 1.054v7.325h4.102v-1.934h-1.905V8.936c0-.489-.014-.914-.044-1.275a4.38 4.38 0 0 0-.16-.923 2.187 2.187 0 0 0-.352-.688 2.967 2.967 0 0 0-.586-.571 2.482 2.482 0 0 0-.806-.396 3.507 3.507 0 0 0-.981-.132c-.586 0-1.201.132-1.846.396-.644.263-1.328.65-2.05 1.157V5.127h-4.16V7.09h1.962v7.324h-1.963v1.963h6.094v-1.963zm16.523-3.135a4.628 4.628 0 0 0-.63-.674 2.832 2.832 0 0 0-.747-.468 12.664 12.664 0 0 0-1.054-.293c-.41-.098-.889-.196-1.436-.293a15.42 15.42 0 0 1-1.406-.25 5.036 5.036 0 0 1-.82-.248.873.873 0 0 1-.367-.337 1.037 1.037 0 0 1-.132-.542c0-.215.044-.405.132-.571.088-.166.23-.308.425-.425a1.93 1.93 0 0 1 .645-.293c.234-.059.498-.088.79-.088.567 0 1.065.117 1.495.351.43.235.8.577 1.113 1.026v.674h1.963V5.127h-1.963v.498a5.408 5.408 0 0 0-1.274-.498 5.965 5.965 0 0 0-1.48-.176c-.586 0-1.113.083-1.582.25a4.023 4.023 0 0 0-1.26.717c-.351.312-.62.664-.805 1.055-.186.39-.279.82-.279 1.289 0 .468.083.888.25 1.26.165.37.414.703.747.996.332.293.776.546 1.333.761.556.215 1.215.39 1.977.528.527.078.967.16 1.318.249.352.088.616.19.791.307a.992.992 0 0 1 .396.381c.088.156.132.342.132.557 0 .215-.054.405-.161.571a1.556 1.556 0 0 1-.484.454 3.05 3.05 0 0 1-.747.278c-.283.069-.6.103-.952.103s-.674-.044-.967-.132a2.894 2.894 0 0 1-.82-.395 2.49 2.49 0 0 1-.571-.586 1.69 1.69 0 0 1-.279-.703v-.381h-1.963v3.867h1.963v-.645c.39.274.83.479 1.319.616a5.964 5.964 0 0 0 1.611.205c.645 0 1.226-.078 1.743-.235.518-.156.982-.39 1.392-.703.39-.293.688-.65.893-1.07.205-.419.308-.893.308-1.42a3.18 3.18 0 0 0-.147-.981 3.685 3.685 0 0 0-.41-.865zm5.948-6.152h-3.926V7.09h1.728v7.324h-1.728v1.963h5.683v-1.963h-1.757V5.127zM89.18 2.666c.175 0 .341-.034.498-.103.156-.068.302-.17.44-.307a.997.997 0 0 0 .292-.41c.059-.157.088-.332.088-.528 0-.175-.03-.341-.088-.498a1.239 1.239 0 0 0-.293-.44 1.754 1.754 0 0 0-.44-.277A1.229 1.229 0 0 0 89.18 0c-.196 0-.371.034-.528.103a1.754 1.754 0 0 0-.44.278c-.116.137-.21.283-.277.44a1.229 1.229 0 0 0-.103.497c0 .176.034.342.103.498.068.157.17.303.307.44.117.137.254.24.41.307.157.069.332.103.528.103zm8.174 12.012c.156.234.37.459.644.674.273.214.596.42.967.615.37.195.757.342 1.157.44.4.097.825.146 1.274.146.801 0 1.534-.142 2.198-.425a4.81 4.81 0 0 0 1.758-1.304 5.76 5.76 0 0 0 1.142-1.904 6.68 6.68 0 0 0 .381-2.285c0-.88-.132-1.67-.396-2.373a5.325 5.325 0 0 0-1.157-1.846 5.287 5.287 0 0 0-1.772-1.187 5.63 5.63 0 0 0-2.124-.395c-.801 0-1.543.156-2.227.469-.683.312-1.299.79-1.845 1.435V.234h-4.16v1.963h1.992v12.217h-1.993v1.963h4.16v-1.7zm1.171-6.826c.371-.352.762-.61 1.172-.777a3.48 3.48 0 0 1 1.319-.249c.488 0 .937.083 1.347.25.41.165.791.414 1.143.746.351.313.615.699.79 1.157.177.46.265.992.265 1.597 0 .606-.088 1.153-.264 1.64a3.37 3.37 0 0 1-.791 1.26c-.352.372-.742.65-1.172.836-.43.185-.889.278-1.377.278-.469 0-.908-.088-1.318-.264a3.897 3.897 0 0 1-1.143-.762 3.271 3.271 0 0 1-.82-1.215c-.176-.46-.264-.982-.264-1.568 0-.644.093-1.21.278-1.699a3.1 3.1 0 0 1 .835-1.23zm15.293 6.562h-1.699V.234H107.9v1.963h1.993v12.217H107.9v1.963h5.918v-1.963zm7.676.38a3.954 3.954 0 0 1-1.435-.248 3.83 3.83 0 0 1-1.172-.718 4.177 4.177 0 0 1-.806-1.128 4.823 4.823 0 0 1-.425-1.391h9.434c-.02-1.075-.186-2.017-.498-2.828a5.091 5.091 0 0 0-1.406-2.036 6.23 6.23 0 0 0-1.934-1.216 5.972 5.972 0 0 0-2.168-.395c-.762 0-1.484.137-2.168.41a5.88 5.88 0 0 0-1.904 1.26 5.51 5.51 0 0 0-1.333 1.89c-.303.712-.454 1.499-.454 2.358 0 .898.151 1.709.454 2.432a5.309 5.309 0 0 0 1.362 1.904 6.867 6.867 0 0 0 2.036 1.201c.733.273 1.528.41 2.388.41a6.86 6.86 0 0 0 1.611-.19 8.379 8.379 0 0 0 1.553-.542 5.655 5.655 0 0 0 1.377-.894c.41-.361.771-.786 1.084-1.274l-1.934-.88c-.449.626-.976 1.095-1.582 1.407-.605.313-1.299.469-2.08.469zm-2.607-7.323c.312-.293.659-.508 1.04-.645.38-.137.786-.205 1.216-.205.488 0 .937.078 1.347.234.41.157.781.391 1.114.704.332.332.6.673.805 1.025.205.352.347.723.425 1.113h-7.09c.078-.449.21-.86.396-1.23.185-.371.434-.703.747-.996zM47.812 21.768a3.266 3.266 0 0 0-1.01-.747 2.739 2.739 0 0 0-1.157-.25c-.41 0-.796.079-1.158.235-.361.156-.698.38-1.01.674a3.35 3.35 0 0 0-.674 1.054c-.157.391-.235.84-.235 1.348 0 .43.069.835.205 1.216.137.38.342.727.616 1.04.293.312.62.542.981.688.361.147.767.22 1.216.22.234 0 .464-.024.688-.073.225-.049.445-.132.66-.25.195-.097.366-.204.512-.321a2.54 2.54 0 0 0 .367-.352v.557c0 .195-.005.366-.015.512-.01.147-.025.269-.044.367-.02.078-.054.166-.103.263a1.009 1.009 0 0 1-.19.264 1 1 0 0 1-.264.278 1.84 1.84 0 0 1-.38.22 1.76 1.76 0 0 1-.484.161c-.166.03-.337.044-.513.044-.312 0-.615-.054-.908-.161a3.582 3.582 0 0 1-.85-.454l-.79.879c.37.273.756.478 1.157.615.4.137.835.205 1.303.205.293 0 .577-.024.85-.073.273-.05.537-.132.791-.25a2.8 2.8 0 0 0 .66-.35 2.17 2.17 0 0 0 .453-.44c.118-.157.215-.313.293-.469.078-.156.137-.303.176-.44.02-.156.04-.351.059-.585.02-.235.029-.508.029-.82v-4.6h1.113v-1.084h-2.343v.879zm-.585 3.808c-.196.195-.41.342-.645.44a2.04 2.04 0 0 1-.791.146 1.96 1.96 0 0 1-.762-.146 1.7 1.7 0 0 1-.615-.44 1.755 1.755 0 0 1-.425-.674 2.585 2.585 0 0 1-.132-.85c0-.331.05-.624.147-.878.098-.254.244-.479.44-.674.195-.195.41-.342.644-.44a1.96 1.96 0 0 1 .762-.146c.254 0 .498.049.732.147.234.097.45.244.645.439.214.195.37.42.468.674.098.254.147.537.147.85 0 .312-.049.6-.147.864a1.734 1.734 0 0 1-.468.688zm8.642-2.46a5.974 5.974 0 0 0-.088-1.085 3.45 3.45 0 0 0-.132-.337 1.056 1.056 0 0 0-.22-.307 1.437 1.437 0 0 0-.307-.279 1.786 1.786 0 0 0-.454-.22 2.592 2.592 0 0 0-.542-.131 4.667 4.667 0 0 0-.66-.044c-.624 0-1.161.117-1.61.351-.45.235-.801.596-1.055 1.084l1.172.323c.136-.254.312-.44.527-.557.215-.117.479-.176.791-.176.176 0 .337.015.483.044a.84.84 0 0 1 .367.161c.117.059.21.127.278.205.068.079.122.157.161.235.02.097.04.205.059.322.02.117.029.254.029.41v.615a3.417 3.417 0 0 0-.835-.395 2.9 2.9 0 0 0-.864-.132c-.313 0-.6.049-.865.147a2.19 2.19 0 0 0-.717.44c-.235.194-.406.41-.513.644a1.877 1.877 0 0 0-.161.79c0 .294.054.557.161.792.107.234.259.44.454.615.215.176.444.312.689.41.244.098.503.146.776.146.371 0 .723-.073 1.055-.22a3.1 3.1 0 0 0 .937-.658v.761h2.11v-1.084h-1.026v-2.87zm-1.201 2.372a3.207 3.207 0 0 1-.82.572c-.274.127-.557.19-.85.19a1.39 1.39 0 0 1-.469-.073.958.958 0 0 1-.571-.557 1.175 1.175 0 0 1 0-.82.821.821 0 0 1 .249-.337 1.21 1.21 0 0 1 .396-.22c.146-.049.297-.073.454-.073.273 0 .542.049.805.146.264.098.533.254.806.47v.702zm12.598-2.578c0-.254-.01-.483-.03-.688a2.91 2.91 0 0 0-.088-.513 1.52 1.52 0 0 0-.22-.366 2.288 2.288 0 0 0-.307-.308 2.114 2.114 0 0 0-.454-.19 1.914 1.914 0 0 0-.542-.074c-.352 0-.713.083-1.084.25a6.021 6.021 0 0 0-1.172.717 1.631 1.631 0 0 0-.571-.717c-.244-.167-.542-.25-.894-.25-.351 0-.708.074-1.069.22a4.55 4.55 0 0 0-1.099.66v-.762H57.51v1.054h1.025v4.043h-1.113v1.084h3.428v-1.084h-1.114v-3.31c.371-.274.703-.479.996-.615.293-.137.557-.206.791-.206.137 0 .254.025.352.074a.564.564 0 0 1 .234.22c.059.078.103.19.132.336.03.147.044.328.044.542v4.043h2.285v-1.084h-1.054v-3.31c.332-.274.644-.479.937-.615.293-.137.576-.206.85-.206.078 0 .156.015.234.044.078.03.156.064.234.103.06.059.108.117.147.176.039.058.068.127.088.205.02.078.034.18.044.307.01.127.014.279.014.455v3.925h2.286v-1.084h-1.084V22.91zm6.064-2.197c-.45 0-.864.088-1.245.264-.38.175-.718.439-1.01.79v-3.603H68.76v1.084h1.113v6.738H68.76v1.084h2.314v-.908c.078.117.19.234.337.352.147.117.327.234.542.351a3.14 3.14 0 0 0 1.348.323c.449 0 .854-.079 1.216-.235.36-.156.688-.4.981-.732a3.45 3.45 0 0 0 .63-1.04c.146-.381.22-.806.22-1.275 0-.488-.074-.923-.22-1.303a2.875 2.875 0 0 0-.66-1.011 2.946 2.946 0 0 0-.98-.66 3.05 3.05 0 0 0-1.158-.22zm1.143 4.775c-.196.196-.41.347-.645.454a1.806 1.806 0 0 1-.762.162c-.254 0-.498-.05-.732-.147a1.994 1.994 0 0 1-.645-.44 1.633 1.633 0 0 1-.439-.659 2.47 2.47 0 0 1-.146-.864c0-.351.053-.664.16-.937a1.75 1.75 0 0 1 .455-.674c.195-.195.41-.337.644-.425.235-.088.479-.132.733-.132.273 0 .522.044.747.132.224.088.434.22.63.396.195.175.341.39.44.644.097.254.146.547.146.879 0 .332-.05.635-.147.908a1.868 1.868 0 0 1-.44.703zm4.746-7.324h-2.315v1.084h1.114v6.738h-1.114v1.084h3.282v-1.084h-.967v-7.822zm3.72 1.113a.55.55 0 0 0 .176-.22.752.752 0 0 0 0-.586.55.55 0 0 0-.176-.219.447.447 0 0 0-.22-.161.974.974 0 0 0-.586 0 .447.447 0 0 0-.219.161.83.83 0 0 0-.176.249.678.678 0 0 0 0 .557.55.55 0 0 0 .176.22.55.55 0 0 0 .22.175.752.752 0 0 0 .586 0 .55.55 0 0 0 .22-.176zm.147 1.612h-2.168v1.084h.937v4.013h-.937v1.084h3.135v-1.084h-.967V20.89zm7.646 2.08c0-.274-.01-.508-.029-.703a2.885 2.885 0 0 0-.088-.498 1.163 1.163 0 0 0-.19-.381 1.914 1.914 0 0 0-.308-.323 1.506 1.506 0 0 0-.454-.22 1.914 1.914 0 0 0-.542-.073c-.332 0-.679.074-1.04.22a5.088 5.088 0 0 0-1.099.63v-.732h-2.314v1.054h1.084v4.043h-1.084v1.084h3.37v-1.084h-1.085v-3.31a4.43 4.43 0 0 1 .982-.6c.302-.128.59-.191.864-.191.097 0 .19.02.278.058.088.04.171.088.25.147a.999.999 0 0 1 .146.351c.039.157.058.352.058.586v4.043h2.256v-1.084h-1.055V22.97zm6.827-1.201a3.62 3.62 0 0 0-1.04-.747 2.739 2.739 0 0 0-1.158-.25c-.41 0-.79.079-1.142.235a3.59 3.59 0 0 0-.996.674 3.122 3.122 0 0 0-.703 1.054c-.157.391-.235.84-.235 1.348a3.357 3.357 0 0 0 .85 2.256c.273.312.59.542.952.688.361.147.767.22 1.216.22.234 0 .464-.024.688-.073.225-.049.445-.132.66-.25.195-.097.37-.204.527-.321.156-.118.283-.235.38-.352v.557c0 .195-.004.366-.014.512-.01.147-.024.269-.044.367-.02.078-.054.166-.103.263a1.009 1.009 0 0 1-.19.264c-.078.098-.17.19-.278.278a1.39 1.39 0 0 1-.396.22 1.781 1.781 0 0 1-.469.161 2.7 2.7 0 0 1-1.406-.117 3.582 3.582 0 0 1-.85-.454l-.79.879c.351.273.732.478 1.142.615.41.137.84.205 1.29.205a5 5 0 0 0 .878-.073 2.79 2.79 0 0 0 .762-.25 2.8 2.8 0 0 0 .659-.35 2.17 2.17 0 0 0 .454-.44c.117-.157.215-.313.293-.469.078-.156.137-.303.176-.44a2.98 2.98 0 0 0 .073-.585c.01-.235.015-.508.015-.82v-4.6h1.113v-1.084h-2.314v.879zm-.586 3.808a1.951 1.951 0 0 1-.66.44 2.07 2.07 0 0 1-.776.146 2.04 2.04 0 0 1-.79-.146 1.7 1.7 0 0 1-.616-.44 2.152 2.152 0 0 1-.41-.674 2.35 2.35 0 0 1-.147-.85c0-.331.054-.624.161-.878.108-.254.26-.479.454-.674.196-.195.41-.342.645-.44.234-.097.478-.146.732-.146.274 0 .528.049.762.147.234.097.45.244.645.439s.341.42.44.674c.097.254.146.537.146.85 0 .312-.05.6-.147.864a1.89 1.89 0 0 1-.44.688zm5.478-6.767l-1.201 1.113v.967h-.82v1.054h.82v3.077c0 .312.005.576.015.79.01.215.034.381.073.499.02.136.068.253.146.351.079.098.176.186.293.264a.8.8 0 0 0 .381.205c.156.039.322.058.498.058.156 0 .313-.014.469-.043.156-.03.313-.074.469-.132v-1.114c-.098.04-.205.074-.323.103-.117.03-.224.044-.322.044a.721.721 0 0 1-.278-.044.22.22 0 0 1-.132-.132c-.039-.058-.063-.161-.073-.307a9.545 9.545 0 0 1-.015-.601v-2.988h1.143v-1.084h-1.143v-2.08zm5.39 2.08c-.136.039-.268.097-.395.175a2.008 2.008 0 0 0-.366.293 4.42 4.42 0 0 0-.322.425 3.246 3.246 0 0 0-.264.484v-1.377h-2.226v1.084h1.26v4.013h-1.26v1.084h3.837v-1.084h-1.347V24.64c0-.43.014-.791.044-1.084.03-.293.083-.518.16-.674a1.261 1.261 0 0 1 .675-.674c.156-.078.351-.132.586-.161.234-.03.507-.044.82-.044h.234v-1.23h-.322c-.234 0-.444.01-.63.029a2.87 2.87 0 0 0-.483.088zm8.028 0h-2.314v1.084h1.084v3.34c-.313.273-.62.478-.923.615a2.16 2.16 0 0 1-.894.205.789.789 0 0 1-.249-.044.552.552 0 0 1-.22-.132.469.469 0 0 1-.205-.38 2.106 2.106 0 0 1-.044-.352 9.09 9.09 0 0 1-.014-.557v-3.78h-2.08v1.085h.879v2.841c0 .313.01.586.029.82.02.235.049.42.088.557.058.157.132.293.22.41.087.118.2.215.337.294.136.097.288.17.454.22.166.048.356.073.57.073.333 0 .67-.069 1.012-.206a4.33 4.33 0 0 0 1.04-.615v.703h2.285v-1.084h-1.055V20.89zm5.742 2.754a5.888 5.888 0 0 0-.571-.176 6.512 6.512 0 0 0-.776-.147 283.73 283.73 0 0 1-.777-.146 1.448 1.448 0 0 1-.454-.147.444.444 0 0 1-.22-.175.543.543 0 0 1-.073-.293c0-.118.025-.22.073-.308a.753.753 0 0 1 .25-.249.83.83 0 0 1 .336-.161c.127-.03.279-.044.455-.044.312 0 .585.063.82.19.234.127.44.318.615.572v.38h1.084v-2.05h-1.084v.263a3.146 3.146 0 0 0-1.523-.38c-.332 0-.625.043-.88.131-.253.088-.488.22-.702.396a1.778 1.778 0 0 0-.44.586 1.752 1.752 0 0 0-.146.732c0 .254.044.484.131.689.088.205.23.385.425.542.176.175.415.322.718.44.303.116.669.204 1.099.263.293.058.537.112.732.16.195.05.342.103.44.162.097.059.17.132.22.22.048.088.073.19.073.307 0 .118-.03.225-.088.323a.62.62 0 0 1-.264.234 1.955 1.955 0 0 1-.425.147c-.166.039-.347.058-.542.058-.176 0-.346-.024-.513-.073a1.506 1.506 0 0 1-.454-.22.887.887 0 0 1-.322-.307 1.027 1.027 0 0 1-.146-.396v-.205h-1.084V27.1h1.084v-.352c.214.137.454.244.717.322.264.078.562.117.894.117.352 0 .674-.043.967-.131.293-.088.547-.21.761-.367.215-.175.381-.376.499-.6.117-.225.175-.484.175-.776a1.756 1.756 0 0 0-.322-1.025 1.676 1.676 0 0 0-.337-.396 1.43 1.43 0 0 0-.425-.25zm3.868-4.834l-1.202 1.113v.967h-.82v1.054h.82v3.077c0 .312.005.576.015.79.01.215.034.381.073.499.02.136.069.253.147.351.078.098.175.186.293.264.117.097.249.166.395.205.147.039.318.058.513.058.156 0 .312-.014.469-.043a2.09 2.09 0 0 0 .44-.132v-1.114c-.099.04-.201.074-.309.103-.107.03-.22.044-.336.044a.721.721 0 0 1-.279-.044.22.22 0 0 1-.132-.132 1.906 1.906 0 0 1-.058-.307 4.79 4.79 0 0 1-.03-.601v-2.988h1.143v-1.084h-1.142v-2.08z"/>
</svg>
