<svg xmlns="http://www.w3.org/2000/svg" width="14" height="16" viewBox="0 0 14 16">
    <path fill="#FFF" fill-opacity=".6" fill-rule="evenodd" d="M2 6.251h10.13l-.65 1H2v-1zm0-2h10.13l-.65 1H2v-1zm0-2h10.13l-.65 1H2v-1zm9.48 7H2v-1h10.13l-.65 1zm0 2H2v-1h10.13l-.65 1zm0 2H2v-1h10.13l-.65 1zM12.6.5c-.7 0-.7-.5-1.4-.5s-.7.5-1.4.5S9.1 0 8.4 0 7.7.5 7 .5 6.3 0 5.6 0s-.7.5-1.4.5S3.5 0 2.8 0s-.7.5-1.4.5S.7 0 0 0v15.999c.7 0 .7-.5 1.4-.5s.7.5 1.4.5.7-.5 1.4-.5.7.5 1.4.5.7-.5 1.4-.5.7.5 1.4.5.7-.5 1.4-.5.7.5 1.4.5.7-.5 1.4-.5.7.5 1.4.5V0c-.7 0-.7.5-1.4.5z"/>
</svg>
