<svg xmlns="http://www.w3.org/2000/svg" width="15" height="16" viewBox="0 0 15 16">
    <path fill="#FFF" fill-opacity=".6" fill-rule="nonzero" d="M1.143 14.857h2.571v-2.571H1.143v2.571zm3.143 0h2.857v-2.571H4.286v2.571zm-3.143-3.143h2.571V8.857H1.143v2.857zm3.143 0h2.857V8.857H4.286v2.857zM1.143 8.286h2.571V5.714H1.143v2.572zm6.571 6.571h2.857v-2.571H7.714v2.571zM4.286 8.286h2.857V5.714H4.286v2.572zm6.857 6.571h2.571v-2.571h-2.571v2.571zm-3.429-3.143h2.857V8.857H7.714v2.857zM4.571 4V1.429v-.286H3.43V4.286H4.57V4zm6.572 7.714h2.571V8.857h-2.571v2.857zM7.714 8.286h2.857V5.714H7.714v2.572zm3.429 0h2.571V5.714h-2.571v2.572zM11.429 4V1.429v-.286H10.286V4.286h1.143V4zm3.428-.571V16H0V3.429 2.286h2.286v-.857V0h3.428v2.286h3.429v-.857V0h3.428v2.286h2.286v1.143z"/>
</svg>
