<svg xmlns="http://www.w3.org/2000/svg" width="16" height="16" viewBox="0 0 16 16">
    <path fill="#FFF" fill-opacity=".6" fill-rule="nonzero" d="M8-35a8 8 0 1 0 0 16 8 8 0 0 0 0-16zm-.16 13.493c-.889 0-1.236-.355-1.236-1.209 0-.853.365-1.19 1.236-1.19s1.236.346 1.236 1.19c0 .845-.347 1.21-1.236 1.21zm.889-3.653v.124H6.987v-.302c0-2.666 2.515-2.666 2.515-4.204 0-.978-.506-1.378-1.778-1.378a7.938 7.938 0 0 0-2.39.444v-1.6A8.418 8.418 0 0 1 8-32.502c2.542 0 3.609.818 3.609 2.782C11.556-27 8.693-27 8.693-25.16h.036z"/>
</svg>
