<svg xmlns="http://www.w3.org/2000/svg" width="16" height="16" viewBox="0 0 16 16">
    <path fill="#FFF" fill-opacity=".6" fill-rule="evenodd" d="M8 16A8 8 0 1 1 8 0a8 8 0 0 1 0 16zM3.756 9.604l1.362-1.338c.414-.402.606-.786.606-1.218 0-.804-.402-1.152-1.35-1.152a3.34 3.34 0 0 0-1.128.174v.408c.354-.12.702-.18 1.056-.18.666 0 .936.234.936.798 0 .336-.174.648-.528.996L3.12 9.64V10h2.64v-.396H3.756zm4.17.468c1.098 0 1.566-.618 1.566-2.088 0-1.47-.468-2.088-1.566-2.088S6.36 6.514 6.36 7.984c0 1.47.468 2.088 1.566 2.088zm0-.402c-.762 0-1.074-.492-1.074-1.686 0-1.2.312-1.686 1.074-1.686S9 6.784 9 7.984 8.688 9.67 7.926 9.67zm1.866.33h.426l1.434-4.032h-.426L9.792 10zm2.988-4.032l-.918.378v.396l.828-.342V10h.48V5.968h-.39z"/>
</svg>
