<svg xmlns="http://www.w3.org/2000/svg" width="16" height="17" viewBox="0 0 16 17">
    <path fill="#FFF" fill-opacity=".6" fill-rule="evenodd" d="M8 5.883c-.983 0-1.779.753-1.779 1.68 0 .93.796 1.682 1.778 1.682s1.777-.752 1.777-1.681c0-.928-.795-1.68-1.777-1.68m0 .84c.49 0 .889.377.889.84 0 .464-.399.84-.889.84s-.889-.376-.889-.84c0-.463.4-.84.89-.84zM8 0c4.418 0 8 3.387 8 7.564 0 3.367-2.328 6.218-5.542 7.2.054-.303.095-.617.125-.938 2.647-.978 4.527-3.416 4.527-6.262C15.11 3.857 11.92.84 8 .84 4.08.84.89 3.857.89 7.564c0 2.843 1.877 5.279 4.52 6.26.027.338.065.648.11.932C2.316 13.77 0 10.924 0 7.564 0 3.387 3.582 0 8 0zm0 2.942c2.7 0 4.889 2.07 4.889 4.622 0 1.629-.892 3.06-2.24 3.884a2.623 2.623 0 0 0-.233-.876c.96-.692 1.584-1.78 1.584-3.008 0-2.085-1.795-3.782-4-3.782-2.206 0-4 1.697-4 3.782 0 1.228.624 2.316 1.584 3.008-.123.26-.203.553-.234.876-1.346-.823-2.238-2.255-2.238-3.884 0-2.553 2.188-4.622 4.888-4.622zm0 7.144c-.982 0-1.778.42-1.778 1.68 0 3.993.667 5.044 1.778 5.044 1 0 1.777-1.05 1.777-5.043 0-1.261-.795-1.681-1.777-1.681m0 .84c.673 0 .889.205.889.84 0 1.748-.152 2.995-.452 3.71-.207.493-.368.493-.437.493-.125 0-.28 0-.475-.482-.275-.685-.414-1.937-.414-3.72 0-.636.216-.84.89-.84"/>
</svg>
