<svg xmlns="http://www.w3.org/2000/svg" width="23" height="11" viewBox="0 0 23 11">
    <path fill="#FFF" fill-opacity=".6" fill-rule="evenodd" d="M7.883.001a5.586 5.586 0 0 0-5.425 4.106 1.667 1.667 0 0 0-.825-.227C.733 3.88 0 4.617 0 5.513a1.635 1.635 0 0 0 2.458 1.405 5.563 5.563 0 0 0 5.378 4.099 5.58 5.58 0 0 0 5.111-3.337c.009-.02.023-.043.032-.063.731-1.91 2.07-2.994 3.423-3.659 1.455-.692 3.22-.942 5.158-.942.29 0 .55-.255.55-.542V.551a.57.57 0 0 0-.55-.55H8.04c-.059.002-.106-.003-.157 0zm6.046 1.091h.384v.605h-.384v-.605zM7.875 1.1c.08 0 .148-.005.228 0 2.342.148 4.193 2.06 4.193 4.413-.036.67-.11 1.178-.377 1.782a4.457 4.457 0 0 1-4.083 2.623c-2.477 0-4.46-1.967-4.46-4.405-.044-2.584 2.3-4.525 4.5-4.413zM1.633 4.98c.31 0 .55.227.55.534a.54.54 0 0 1-.55.534.528.528 0 0 1-.526-.534.52.52 0 0 1 .526-.534zm6.205-3.006c1.967 0 3.584 1.589 3.584 3.543 0 1.955-1.617 3.543-3.584 3.543-1.975 0-3.594-1.588-3.594-3.543 0-1.954 1.619-3.543 3.594-3.543z"/>
</svg>
