<svg xmlns="http://www.w3.org/2000/svg" width="18" height="14" viewBox="0 0 18 14">
    <path fill="#FFF" fill-opacity=".6" fill-rule="nonzero" d="M11.864 11.773v1.909c0 .086.031.16.094.224a.306.306 0 0 0 .224.094h1.909c.086 0 .16-.031.224-.094a.306.306 0 0 0 .094-.224v-1.91a.306.306 0 0 0-.094-.223.306.306 0 0 0-.224-.094h-1.91a.306.306 0 0 0-.223.094.306.306 0 0 0-.094.224zm0-3.818v1.909c0 .086.031.16.094.223a.306.306 0 0 0 .224.095h1.909c.086 0 .16-.032.224-.095a.306.306 0 0 0 .094-.223v-1.91a.306.306 0 0 0-.094-.223.306.306 0 0 0-.224-.095h-1.91a.306.306 0 0 0-.223.095.306.306 0 0 0-.094.224zm0-3.819v1.91c0 .086.031.16.094.223a.306.306 0 0 0 .224.095h1.909c.086 0 .16-.032.224-.095a.306.306 0 0 0 .094-.224V4.136a.306.306 0 0 0-.094-.223.306.306 0 0 0-.224-.095h-1.91a.306.306 0 0 0-.223.095.306.306 0 0 0-.094.223zM0 11.773v1.909c0 .086.025.16.074.224.05.063.108.094.176.094h10.5c.068 0 .126-.031.176-.094a.351.351 0 0 0 .074-.224v-1.91a.351.351 0 0 0-.074-.223c-.05-.063-.108-.094-.176-.094H.25c-.068 0-.126.031-.176.094a.351.351 0 0 0-.074.224zM11.864.318v1.91c0 .085.031.16.094.223a.306.306 0 0 0 .224.094h1.909c.086 0 .16-.031.224-.094a.306.306 0 0 0 .094-.224V.318a.306.306 0 0 0-.094-.224A.306.306 0 0 0 14.09 0h-1.91a.306.306 0 0 0-.223.094.306.306 0 0 0-.094.224zm3.409 11.455v1.909c0 .086.031.16.094.224a.306.306 0 0 0 .224.094H17.5c.086 0 .16-.031.224-.094a.306.306 0 0 0 .094-.224v-1.91a.306.306 0 0 0-.094-.223.306.306 0 0 0-.224-.094h-1.91a.306.306 0 0 0-.223.094.306.306 0 0 0-.094.224zm0-3.818v1.909c0 .086.031.16.094.223a.306.306 0 0 0 .224.095H17.5c.086 0 .16-.032.224-.095a.306.306 0 0 0 .094-.223v-1.91a.306.306 0 0 0-.094-.223.306.306 0 0 0-.224-.095h-1.91a.306.306 0 0 0-.223.095.306.306 0 0 0-.094.224zm0-3.819v1.91c0 .086.031.16.094.223a.306.306 0 0 0 .224.095H17.5c.086 0 .16-.032.224-.095a.306.306 0 0 0 .094-.224V4.136a.306.306 0 0 0-.094-.223.306.306 0 0 0-.224-.095h-1.91a.306.306 0 0 0-.223.095.306.306 0 0 0-.094.223zm0-3.818v1.91c0 .085.031.16.094.223a.306.306 0 0 0 .224.094H17.5c.086 0 .16-.031.224-.094a.306.306 0 0 0 .094-.224V.318a.306.306 0 0 0-.094-.224A.306.306 0 0 0 17.5 0h-1.91a.306.306 0 0 0-.223.094.306.306 0 0 0-.094.224zM0 7.955v1.909c0 .086.025.16.074.223.05.063.108.095.176.095h10.5c.068 0 .126-.032.176-.095A.351.351 0 0 0 11 9.864v-1.91a.351.351 0 0 0-.074-.223c-.05-.063-.108-.095-.176-.095H.25c-.068 0-.126.032-.176.095A.351.351 0 0 0 0 7.955zm0-3.819v1.91c0 .086.025.16.074.223.05.063.108.095.176.095h10.5c.068 0 .126-.032.176-.095A.351.351 0 0 0 11 6.045V4.136a.351.351 0 0 0-.074-.223c-.05-.063-.108-.095-.176-.095H.25c-.068 0-.126.032-.176.095A.351.351 0 0 0 0 4.136zM0 .318v1.91c0 .085.025.16.074.223.05.063.108.094.176.094h10.5c.068 0 .126-.031.176-.094A.351.351 0 0 0 11 2.227V.318a.351.351 0 0 0-.074-.224C10.876.031 10.818 0 10.75 0H.25C.182 0 .124.031.074.094A.351.351 0 0 0 0 .318z"/>
</svg>
