<svg xmlns="http://www.w3.org/2000/svg" width="17" height="16" viewBox="0 0 17 16">
    <path fill="#FFF" fill-opacity=".6" fill-rule="nonzero" d="M12.86 15.3c0-1.807-1.76-2.726-3.473-3.464C7.68 11.1 7.134 10.48 7.134 9.154c0-.795.522-.536.75-1.995.097-.605.557-.01.645-1.39 0-.55-.252-.687-.252-.687s.128-.815.178-1.442a2.485 2.485 0 0 0-1.85-2.49C6.336.876 6.155.441 6.98.005 5.179-.078 4.76.865 3.8 1.557c-.816.608-1.037 1.571-.997 2.083.052.628.18 1.442.18 1.442s-.253.137-.253.687c.088 1.382.55.786.645 1.39.229 1.46.75 1.2.75 1.996 0 1.327-.17 1.777-1.878 2.513C.533 12.405 0 13.588.01 15.3.01 15.812 0 16 0 16h12.868s-.009-.188-.009-.7zm2.041-4.636c-.913-.368-1.29-.806-1.29-1.662 0-.515.335-.347.483-1.289.062-.39.36-.006.417-.897 0-.354-.162-.443-.162-.443s.082-.527.115-.932c.04-.504-.293-1.807-1.825-1.807-1.53 0-1.864 1.303-1.824 1.807.033.404.115.932.115.932s-.162.088-.162.443c.057.89.355.508.417.897.148.943.484.775.484 1.29 0 .855-.352 1.256-1.455 1.73-.056.023-.097.055-.147.082 1.319.573 3.398 1.561 3.89 3.577h2.128v-1.865c0-.804-.22-1.475-1.184-1.863z"/>
</svg>
