<svg data-name="Layer 1" xmlns="http://www.w3.org/2000/svg" viewBox="0 0 20 20"><defs><style>.cls-1{fill:#fff;}</style></defs><title>WH Sports Football</title><path class="cls-1" d="M8.18,17.75l1.08-.3-1.4-1.82L5,14.8l-.36,1.14A8,8,0,0,1,2,10.2a6.85,6.85,0,0,0,1.3,1.23L5.08,9.26l-.62-3a7.22,7.22,0,0,0-1.55-.05,8,8,0,0,1,5-4L7.54,3.82l2.92.91L12.7,3.38,11.46,2.09a8,8,0,0,1,5.31,3.6,3.15,3.15,0,0,0-.9-.15l.28,3L18,10.07a8,8,0,0,1-1.29,4.26l-2.17.76-1.61,2.09a1.72,1.72,0,0,0,.2.16,7.95,7.95,0,0,1-4.95.42M10,1a9,9,0,1,0,9,9,9,9,0,0,0-9-9m.81,7.19L8.29,10.27,9.58,13.4l3.27-.27.77-3.25Z"/></svg>