<svg xmlns="http://www.w3.org/2000/svg" width="60" height="60" viewBox="0 0 60 60">
    <g fill="none" fill-rule="evenodd">
        <path fill="#00143C" fill-rule="nonzero" d="M25.354 29.997L35.808 19.11a.712.712 0 0 0-.013-.987l-1.87-1.914a.678.678 0 0 0-.968-.012L20.189 29.49a.653.653 0 0 0-.187.507.692.692 0 0 0 .187.506l12.768 13.3c.262.268.7.262.969-.013l1.87-1.914a.712.712 0 0 0 .012-.987L25.354 29.997z"/>
        <circle cx="30" cy="30" r="29.5" stroke="#00143C" stroke-opacity=".5"/>
    </g>
</svg>
