<svg xmlns="http://www.w3.org/2000/svg" width="60" height="60" viewBox="0 0 60 60">
    <g fill="none" fill-rule="evenodd">
        <path fill="#00143C" fill-rule="nonzero" d="M34.647 29.978l-10.454-10.87a.71.71 0 0 1 .013-.987l1.869-1.911a.678.678 0 0 1 .97-.012l12.766 13.28c.137.138.2.325.187.506a.69.69 0 0 1-.187.506L27.044 43.765a.678.678 0 0 1-.969-.012l-1.87-1.911a.71.71 0 0 1-.012-.987l10.454-10.877z"/>
        <circle cx="30" cy="30" r="29.5" stroke="#00143C" stroke-opacity=".5"/>
    </g>
</svg>
